# xmcd
#
# Track frame offsets: 
#        150
#        10378
#        20056
#        32325
#        43127
#        51488
#        63323
#        72767
#        83427
#        94557
#        104566
#        114918
#        126721
#        136871
#        145092
#        154510
#
# Disc length: 2188 seconds
#
# Revision: 0
# Processed by: cddbd v1.5.1PL0 Copyright (c) Steve Scherf et al.
# Submitted via: ExactAudioCopy v0.95a2
#
DISCID=d4088a10
DTITLE=Willie Egan - WOW WOW - Rockin' The Blues
DYEAR=2005
DGENRE=Blues
TTITLE0=Wow Wow
TTITLE1=She's Gone Away, But...
TTITLE2=Potato Stomp
TTITLE3=Come On
TTITLE4=I Can't Understand
TTITLE5=Sometimes I Wonder
TTITLE6=Wear Your Black Dress
TTITLE7=Sad, Sad Feeling
TTITLE8=Whipped Cream
TTITLE9=Oh Baby
TTITLE10=What A Shame
TTITLE11=I Don't Know Where She Went
TTITLE12=Willie's Blues
TTITLE13=I Can't Understand It (outtake)
TTITLE14=Wear Your Black Dress (outtake)
TTITLE15=Willie's Blues (outtake)
EXTD=
EXTT0=
EXTT1=
EXTT2=
EXTT3=
EXTT4=
EXTT5=
EXTT6=
EXTT7=
EXTT8=
EXTT9=
EXTT10=
EXTT11=
EXTT12=
EXTT13=
EXTT14=
EXTT15=
PLAYORDER=
